<svg xmlns="http://www.w3.org/2000/svg" width="563.999" height="774.198" viewBox="0 0 563.999 774.198">
  <g id="Logo_Escuela" data-name="Logo Escuela" transform="translate(-396.001 -193)">
    <path id="path20" d="M396.6-254.359l-41.72-27.28-45.827-29.88-47.08-31.52-23-16.333-22.227-16.653L195.76-393.372l-19.253-17.52-17.533-18.267-15.04-18.64L131.57-467.132l-5.172-10.04-4.16-9.867-3.507-9.973-2.377-10.24-1.487-10.533-.535-10.44v-500.332H677.678v500.532l.653,10.387-1.48,10.387-2.387,10.24-3.507,9.973-4.16,9.867-5.173,9.827-5.707,9.733L649.265-448l-15.04,18.627-17.533,18.28-19.32,17.72-20.92,17.347L554.4-359.373l-23.173,16.333-46.893,31.52-45.827,29.88Z" transform="translate(281.668 1221.557)" fill="#fc0" fill-rule="evenodd"/>
    <path id="path24" d="M239.719-403.492l-30.187-25.613-14.547-14.147-13.613-15.013L169.666-474.4l-4.987-8.4-4.573-8.76-3.507-9-2.973-9.267-1.773-9.52-1.133-9.827V-993.291H642.652v464.279l-.533,6.973L641-515.225l-1.253,6.613-2.08,6.627-5.107,12.213-6.413,11.813L618.6-466.866l-8.493,10.587-18.893,20.413-19.853,17.56-20.787,16.947-21.387,16.133-21.867,15.573-44.44,29.68-44.867,29.067L396.692-296.4l-73.906-48.72-36.72-24.68-35.893-25.813Z" transform="translate(281.668 1221.557)" fill="#039" fill-rule="evenodd"/>
    <path id="path26" d="M284.373-617.918H508.945v37.107l-.347,5.747-.96,5.347-1.427,4.84-2.027,4.48-2.44,3.96-2.733,3.573-6.6,5.693-7.56,3.813-7.907,1.733-7.733-.147-7.32-2.147.893,3.92,1.84,3.413,2.56,2.853,3.333,2.547,8.453,3.36,10.173,1.627h10.64l10.653-1.28,9.4-2.493,7.373-3.4,7.32,3.4,9.453,2.493,10.48,1.28h10.64l10.12-1.627,4.64-1.427,3.813-1.933,3.507-2.547,2.56-2.853L591.639-540l.72-3.92-9.227,1.64-8.627.147-8.08-1.787-7.027-3.4-5.893-5.4-4.4-7.333-2.733-9.467-1.133-11.293v-107.6l1.133-11.293,2.733-9.267,4.4-7.333,5.893-5.6,3.507-2.187,3.52-1.427,8.08-1.573h8.627l4.64.507,4.587,1.267-.72-4.067-1.893-3.453-2.56-2.8-3.507-2.4-3.813-1.933-4.64-1.427-5-1.067-5.12-.56-10.64-.147-10.48,1.213-9.453,2.493-7.32,3.613-7.373-3.613-9.4-2.493-10.653-1.213-10.64.147L478.972-741.4l-8.453,3.36-3.333,2.4-2.56,2.8-1.84,3.453-.893,4.067,7.32-2.28,7.733-.213,4.04.72,3.867,1.227,7.56,3.813,6.6,5.747,2.733,3.36,2.44,4.12,2.027,4.28,1.427,5.04.96,5.187.347,5.907v35.267H284.373v-35.267l.413-5.907.947-5.187,1.427-5.04,2.027-4.28,2.44-4.12,2.92-3.36,6.6-5.747,7.373-3.813,4.053-1.227,3.867-.72,7.907.213,7.133,2.28-.707-4.067-1.84-3.453-2.56-2.8-3.507-2.4-8.453-3.36-10.173-1.627-10.653-.147-10.467,1.213-9.4,2.493-7.56,3.613-3.333-1.987-3.8-1.627-9.467-2.493-10.4-1.213-10.72.147-5.107.56-5,1.067-8.453,3.36-3.333,2.4-2.733,2.8-1.907,3.453-.88,4.067,4.573-1.267,4.64-.507h8.627l8.093,1.573,3.693,1.427,3.32,2.187,5.893,5.6,4.4,7.333,2.973,9.267.893,11.293v107.6l-.893,11.293-2.547,9.467-4.107,7.333-5.72,5.4-6.6,3.4-7.733,1.787-8.453-.147-9.213-1.64.947,3.92,1.787,3.413,2.56,2.853,3.333,2.547,3.867,1.933,4.227,1.427,9.747,1.627h10.36l10.053-1.28,9.28-2.493,7.133-3.4,7.56,3.4,9.4,2.493,10.467,1.28h10.653l10.173-1.627,8.453-3.36,3.507-2.547,2.56-2.853,1.84-3.413.707-3.92-7.133,2.147h-7.907l-7.92-2.147-7.373-4.12-6.6-6.107-5.36-7.68-3.453-9.72-.947-5.293-.413-5.76Z" transform="translate(281.668 1221.557)" fill="#fc0" fill-rule="evenodd"/>
    <path id="path28" d="M418.426-706.145l8.613-10.187,3.147-5.187,2.56-5.253,1.907-5.333,1.067-5.4V-748.2l-1.253-5.4-2.08-5.387-2.907-5.2-3.867-5.133-4.76-5.24-5.88-5-6.84-4.88-7.72-4.587,2.733,7.84,2.373,10.027,1.493,10.947v10.947l-2.027,9.827-1.84,4.267-2.56,3.773-3.333,2.907-4.04,1.933-4.933,1.067h-6.067V-834.878l.893-9.68,2.733-8.093,4.28-6.613,5.707-5.187,6.787-3.92,7.907-2.907,8.613-1.933,9.28-1.067h19.667l19.8,1.773,18.427,2.853,15.4,3.053,3.747,1.987,3.08,2.547,2.44,2.653,1.613,3,1.12,3.107.36,3.36-1.307,7.013-3.693,7.187-6.36,7.12-9.093,6.827-11.76,6.467,16.4,2.64,13.973.16,6.067-.867,5.347-1.427,9.027-4.84,3.627-3.36L539.265-827l2.387-4.88,1.893-5.2,1.96-12.467.187-7.373-.533-7.893,9.92-10.893,3.693-5.707,2.907-5.6,2.267-5.693,1.24-5.6.773-5.707v-5.6l-.773-5.493-1.24-5.187-2.093-5.2-2.547-5.04-3.16-4.627-3.613-4.48-4.28-4.333-4.947-3.707v14.293l-2.187,11.307-1.667,4.427-2.2,4.173-5.533,6.267-6.24,3.92-6.84,1.987-6.773.56-6.413-1.08-13.8-2.387L473.759-906.5l-20.027-2.133-21.347-.973-20.8.213-19.32,2.333-8.44,1.987-7.733,2.693-6.6,3.36-5.347,4.333-7.133-4.68-7.373-3.773-14.92-5.347-7.307-1.467-7.547-.52-7.2.16L305.719-909l-6.667,1.787-6.24,3-5.88,3.76-5.347,4.893-4.64,5.653-4.16,6.813-3.573,7.747-2.907,8.747,9.027-4.68,8.44-3.36,8.147-2.187,7.547-.867H306.6l6.427.867,6.12,1.827,5.293,2.707,4.933,3.2,4.28,3.773,6.773,8.907,4.227,10.427,1.307,11.107v317.319l-7.907,12.32-8.08,9.88-8.267,6.973-8.853,4.32-9.573,1.573-5.173-.2-5.653-.707-12.12-3.413-14.027-6.107,7.907,13.787,8.44,12.227,9.453,10.027,5.107,4.067,5.533,3.467,5.88,2.293,6.427,1.827,6.827.707,7.32-.347,16.347-3.973,9.093-3.773,9.507-4.987,7.547,10.547,8.68,8.8,9.747,6.613,10.64,5.147L412-423.386l11.587,1.573,11.773-.36,11.533-1.773,11.413-3.573,10.88-5.24,10.107-6.413,8.8-8.04,7.787-9.467,6-10.787,4.64-12.173,1.48-6.467.893-6.813-8.267,8.853-8.973,7.333-9.8,5.547-10.293,3.92-10.52,2.333-10.4.92-10.52-.36L430.012-466.2l-9.573-3.2-9.04-4.333-8.08-5.4-7.133-6.253-5.707-7.333-4.64-8.04-2.733-8.96-.893-9.667V-690.372l8.8,1.427,7.733,2.853,6.413,3.76,5.36,4.787,4.453,5.6,3.267,6.267,2.2,6.76,1.307,7.187.36,7.32-.533,7.387-1.493,7.387-2.373,7.12-3.093,6.827-4.093,6.253-4.64,5.76-5.467,4.933,9.56-1.787,8.453-3.507,7.36-5.04,6.253-6.467,5.347-7.48,4.213-8.293,3.16-8.76,1.773-9.107.72-9.373-.36-9.267-1.427-8.747-2.907-8.093L438.452-692l-5.347-6.107-6.6-4.787-3.867-2.04Z" transform="translate(281.668 1221.557)" fill="#fc0" fill-rule="evenodd"/>
  </g>
</svg>
